<svg width="166" height="30" viewBox="0 0 166 30" fill="none" xmlns="http://www.w3.org/2000/svg">
<path d="M156.599 18.1497C157.367 17.8499 157.994 17.6109 158.617 17.366C160.43 16.641 162.068 15.6495 162.713 13.696C163.851 10.2456 163.457 6.96951 161.043 4.14801C159.07 1.83986 156.323 0.977729 153.441 0.489844C152.265 0.293907 151.07 0.160669 149.884 0H134.797C134.809 0.521194 134.831 1.04435 134.831 1.5675C134.831 10.5127 134.831 19.4605 134.831 28.411C134.831 29.6963 134.831 29.6983 136.143 29.7002C139.245 29.7002 142.347 29.6806 145.448 29.7159C146.211 29.7159 146.481 29.4886 146.469 28.7108C146.43 26.1636 146.452 23.6164 146.469 21.0692C146.487 20.7457 146.521 20.4233 146.571 20.1032L146.834 20.0523C147.045 20.3579 147.284 20.6401 147.465 20.9712C148.938 23.6242 150.415 26.2752 151.858 28.9439C152.163 29.5082 152.543 29.7139 153.178 29.712C157.128 29.6885 161.078 29.7002 165.028 29.6944C165.33 29.6707 165.629 29.6301 165.926 29.5729C162.671 25.7639 160.338 21.4963 156.599 18.1497ZM149.867 13.0886C148.899 13.3061 147.747 13.6255 146.914 13.2963C145.795 12.8574 146.832 11.5329 146.458 10.8745V9.50298C146.458 7.90217 146.458 7.88455 148.094 7.97468C148.678 8.00266 149.257 8.09332 149.822 8.24507C151.025 8.58208 151.607 9.42069 151.628 10.7119C151.648 11.8856 151.046 12.8222 149.867 13.0886Z" fill="black"/>
<path d="M61.5499 1.38524C61.2227 0.562301 60.823 0.246843 59.9118 0.260559C56.223 0.316728 52.5335 0.316728 48.8433 0.260559C47.9969 0.248803 47.6364 0.572091 47.3522 1.3049C44.6744 8.20844 41.9783 15.1054 39.2639 21.9959C38.2137 24.6646 37.1184 27.3156 36.0447 29.9745H48.7806C49.0295 28.9674 49.292 27.9642 49.5174 26.9512C49.6506 26.3497 49.9857 26.0832 50.595 26.0832C53.2245 26.0832 55.854 26.0832 58.4835 26.0832C59.0262 26.0832 59.3809 26.2791 59.5161 26.8846C59.7512 27.923 60.0627 28.9439 60.341 29.9725H73.0769C72.93 29.6453 72.7693 29.324 72.6361 28.9928C68.9328 19.7929 65.2374 10.5904 61.5499 1.38524ZM56.1988 19.3037C54.841 19.2704 53.4812 19.3037 52.0136 19.3037C52.033 18.9806 52.0703 18.6587 52.1253 18.3397C52.7484 15.7161 53.3734 13.0906 54.0259 10.4728C54.0866 10.2318 54.3453 10.0418 54.5138 9.83015C54.6666 10.0496 54.9056 10.2495 54.9625 10.4944C55.6424 13.1062 56.2733 15.7318 56.9708 18.3319C57.1785 19.1098 56.9473 19.3214 56.1988 19.3037Z" fill="black"/>
<path d="M33.4231 28.6108C33.4231 29.0653 33.472 29.5199 33.4975 29.9823H21.9372C21.9037 29.7966 21.8443 29.6166 21.7608 29.4474C18.3646 24.4967 14.9683 19.5499 11.5721 14.6071C11.38 14.3883 11.1645 14.1911 10.9294 14.0193C10.7771 14.3463 10.7279 14.7119 10.7883 15.0675C10.9647 16.5194 11.2645 17.9655 11.2997 19.4193C11.3879 22.9462 11.3507 26.4731 11.3644 29.9999H0C0.0235125 29.4788 0.0666241 28.9595 0.0666241 28.4324C0.0666241 19.4859 0.0666241 10.5381 0.0666241 1.58898C0.0666241 0.305592 0.066615 0.303643 1.36764 0.301684C4.30671 0.301684 7.24578 0.34283 10.1848 0.276211C11.1508 0.254658 11.7269 0.558351 12.2539 1.36757C15.4654 6.28757 18.7199 11.1645 21.9783 16.0629C22.1997 16.396 22.4799 16.6919 22.7327 17.0034L22.9992 16.9231C22.9992 16.6292 23.0677 16.3157 22.9874 16.0472C21.9803 12.6438 22.2193 9.14435 22.1508 5.66254C22.1214 4.22631 22.1762 2.78813 22.1351 1.35191C22.1096 0.548563 22.3957 0.266414 23.2127 0.276211C26.2165 0.315399 29.2222 0.327155 32.2259 0.276211C33.1683 0.258577 33.4466 0.540714 33.4426 1.48709C33.4054 10.5218 33.4172 19.5741 33.4231 28.6108Z" fill="black"/>
<path d="M102.658 0.286083C102.969 0.286083 103.281 0.317417 103.757 0.342889C103.024 2.02403 102.352 3.56998 101.678 5.11397C98.1902 13.0925 94.7045 21.0724 91.2207 29.0536C91.0914 29.3495 91.0111 29.6669 90.9072 29.9745H80.7185C79.9602 28.1425 79.2274 26.2987 78.4358 24.4883C75.0539 16.7135 71.6622 8.94128 68.2607 1.1717C68.1608 0.940495 68.0864 0.697544 67.9708 0.376207C68.2402 0.33434 68.5116 0.306209 68.7839 0.291943C72.2755 0.291943 75.7671 0.309584 79.2607 0.274315C80.0131 0.274315 80.356 0.531002 80.5833 1.23834C81.9176 5.39809 83.3264 9.53042 84.6333 13.7019C85.0644 15.0931 85.2211 16.5685 85.5229 18.0008C85.5719 18.2242 85.7541 18.4181 85.8736 18.6258C86.0245 18.4142 86.2772 18.2163 86.3125 17.9851C87.1648 12.2363 89.5102 6.91659 91.0542 1.36764C91.2874 0.527066 91.7027 0.256675 92.5727 0.268431C95.933 0.313497 99.2953 0.282164 102.658 0.286083Z" fill="black"/>
<path d="M129.438 23.0305C129.425 25.3446 129.48 27.6605 129.507 29.9746H106.778C106.794 28.7989 106.823 27.6233 106.823 26.4477C106.823 18.1556 106.823 9.86418 106.823 1.57341C106.823 0.28218 106.823 0.280225 108.128 0.280225C114.688 0.280225 121.256 0.30178 127.812 0.256714C128.831 0.256714 129.097 0.570202 129.062 1.54205C128.994 3.39954 129.015 5.26486 129.062 7.12235C129.078 7.89043 128.813 8.14908 128.043 8.13928C125.3 8.10401 122.557 8.13928 119.814 8.10989C119.052 8.10989 118.783 8.31955 118.809 9.1033C118.891 11.6505 118.478 11.2233 120.905 11.2586C123.027 11.2847 125.148 11.2847 127.269 11.2586C127.986 11.2469 128.249 11.4781 128.249 12.2128C128.211 14.0742 128.211 15.935 128.249 17.7951C128.267 18.5475 127.961 18.7415 127.269 18.7336C124.789 18.7042 122.308 18.7454 119.824 18.7081C119.04 18.6964 118.799 18.959 118.822 19.727C118.903 22.3408 118.431 22.0097 121.095 22.0273C123.543 22.045 125.994 22.0567 128.439 22.0273C129.215 21.996 129.442 22.2723 129.438 23.0305Z" fill="black"/>
</svg>
