<svg width="37" height="34" viewBox="0 0 37 34" fill="none" xmlns="http://www.w3.org/2000/svg">
<path d="M21.3234 0H29.131C31.2017 0 33.1876 0.82258 34.6519 2.28679C36.1161 3.751 36.9387 5.73691 36.9387 7.80762V18.3848C36.9387 20.4555 36.1161 22.4414 34.6519 23.9056C33.1876 25.3698 31.2017 26.1924 29.131 26.1924V8.31077C29.131 8.31077 30.3 0.670154 21.3234 0Z" fill="#5840BA"/>
<path d="M15.6152 34L29.1311 26.1924H15.6152V34Z" fill="#5840BA"/>
<path d="M15.6153 26.1924H7.80768C5.73697 26.1924 3.75105 25.3698 2.28684 23.9056C0.822628 22.4414 6.10352e-05 20.4555 6.10352e-05 18.3848V7.80762C6.10352e-05 5.73691 0.822628 3.751 2.28684 2.28679C3.75105 0.82258 5.73697 0 7.80768 0V17.8816C7.80768 17.8816 6.6322 25.5201 15.6153 26.1924Z" fill="#5840BA"/>
<path d="M12.8457 14.9018C13.8422 14.9018 14.6501 14.094 14.6501 13.0974C14.6501 12.1008 13.8422 11.293 12.8457 11.293C11.8491 11.293 11.0413 12.1008 11.0413 13.0974C11.0413 14.094 11.8491 14.9018 12.8457 14.9018Z" fill="#A4DB74"/>
<path d="M18.4693 14.9018C19.4659 14.9018 20.2738 14.094 20.2738 13.0974C20.2738 12.1008 19.4659 11.293 18.4693 11.293C17.4728 11.293 16.6649 12.1008 16.6649 13.0974C16.6649 14.094 17.4728 14.9018 18.4693 14.9018Z" fill="#A4DB74"/>
<path d="M24.0952 14.9018C25.0918 14.9018 25.8996 14.094 25.8996 13.0974C25.8996 12.1008 25.0918 11.293 24.0952 11.293C23.0986 11.293 22.2908 12.1008 22.2908 13.0974C22.2908 14.094 23.0986 14.9018 24.0952 14.9018Z" fill="#A4DB74"/>
</svg>
