<svg width="157" height="30" viewBox="0 0 157 30" fill="none" xmlns="http://www.w3.org/2000/svg">
<path d="M45.2331 0C47.4855 0 51.2383 0.734507 54.5758 2.90273C63.3897 8.62787 63.517 20.9556 54.8441 26.906C48.6215 31.1778 37.8372 31.0015 31.7536 26.5299C23.161 20.2133 24.2226 7.11185 33.726 2.2211C36.6679 0.705107 39.7782 0.0039173 45.2331 0ZM52.9854 15.1345C52.9501 12.2494 52.3351 9.67966 50.8426 7.35866C47.5854 2.29555 41.4646 1.63155 37.4376 5.89945C32.9856 10.6178 33.0875 19.6825 37.6452 24.2833C41.2433 27.9147 46.5591 27.7345 49.8986 23.8524C52.0883 21.3062 52.9266 18.2801 52.9854 15.1345Z" fill="black"/>
<path d="M156.183 25.5839V28.7276C155.775 28.7472 155.425 28.7766 155.076 28.7766C148.025 28.7766 140.974 28.7766 133.923 28.7766C131.261 28.7766 130.005 27.5269 130.005 24.8906C130.005 18.2312 130.005 11.5718 130.005 4.91237C130.005 2.30736 131.253 1.04011 133.823 1.03815C140.905 1.03815 147.986 1.05382 155.066 1.01465C156.026 1.01465 156.294 1.28885 156.255 2.22508C156.161 4.54804 156.551 4.22879 154.206 4.23858C149.702 4.25621 145.197 4.23858 140.692 4.23858C138.839 4.23858 138.324 4.77133 138.322 6.63989C138.322 8.2401 138.363 9.84228 138.304 11.4405C138.273 12.2788 138.586 12.4806 139.376 12.4767C144.468 12.4473 149.561 12.461 154.653 12.461H155.965C155.965 13.4207 156.005 14.2884 155.932 15.1463C155.918 15.3167 155.485 15.5713 155.239 15.5811C154.064 15.6301 152.888 15.6066 151.713 15.6066C147.698 15.6066 143.684 15.6066 139.671 15.6066C139.256 15.6066 138.841 15.6438 138.347 15.6673C138.347 18.5269 138.306 21.2984 138.369 24.066C138.392 25.0688 139.182 25.5742 140.408 25.5761C144.552 25.584 148.697 25.584 152.841 25.5761L156.183 25.5839Z" fill="black"/>
<path d="M126.523 1.03222C126.523 2.01155 126.535 2.88315 126.523 3.75671C126.511 4.43245 125.986 4.2875 125.589 4.28946C122.423 4.28946 119.256 4.3306 116.091 4.27184C115.112 4.25421 114.816 4.49708 114.822 5.51557C114.867 12.7998 114.845 20.086 114.845 27.3702V28.7177H106.29C106.265 28.326 106.214 27.9225 106.212 27.5151C106.212 20.2028 106.212 12.8853 106.212 5.56258C106.212 4.29533 106.212 4.29534 104.915 4.29338H96.2539C96.2539 3.30034 96.2285 2.40133 96.2755 1.50622C96.2755 1.34366 96.5595 1.13603 96.7553 1.05769C96.9512 0.97934 97.2058 1.03222 97.435 1.03222H126.529H126.523Z" fill="black"/>
<path d="M83.2505 4.29137C83.225 4.84959 83.1878 5.30007 83.1878 5.7486C83.1878 13.0034 83.1878 20.2576 83.1878 27.5112C83.1878 28.798 83.1878 28.798 81.9166 28.8H74.5776C74.558 28.3416 74.5247 27.9636 74.5247 27.5856C74.5247 20.2348 74.5031 12.882 74.5443 5.53119C74.5443 4.55187 74.3073 4.24633 73.2986 4.26787C70.198 4.33447 67.0955 4.25416 63.995 4.31488C63.0548 4.3325 62.8413 4.00541 62.855 3.13969C62.8923 1.03218 62.855 1.03218 64.9939 1.03218C73.9723 1.03218 82.9508 1.0498 91.9293 1.00671C92.9399 1.00671 93.2083 1.29073 93.1769 2.2681C93.1142 4.29334 93.1651 4.29333 91.1517 4.29333H83.2505V4.29137Z" fill="black"/>
<path d="M8.29292 1.03223V2.45029C8.29292 9.31078 8.29292 16.1713 8.29292 23.0318C8.29292 25.059 8.80021 25.5565 10.8548 25.5584C15.1306 25.5584 19.4083 25.5819 23.684 25.5389C24.5556 25.5389 24.7945 25.7896 24.7789 26.6435C24.7397 28.7785 24.7789 28.7804 22.6753 28.7804H4.06811C1.20456 28.7804 0.00195865 27.5896 0 24.7475C0 17.2655 0 9.78478 0 2.30535C0 1.0381 -6.72449e-06 1.03615 1.29074 1.03615L8.29292 1.03223Z" fill="black"/>
</svg>
