<svg width="17" height="17" viewBox="0 0 17 17" fill="none" xmlns="http://www.w3.org/2000/svg">
<path d="M0.780647 10.0832L1.26743 9.96897L0.780647 10.0832ZM0.780647 5.23244L1.26743 5.34663L0.780647 5.23244ZM14.535 5.23245L15.0217 5.11826V5.11826L14.535 5.23245ZM14.535 10.0832L15.0217 10.1973L14.535 10.0832ZM10.0832 14.535L9.96897 14.0482L10.0832 14.535ZM5.23245 14.535L5.11826 15.0217L5.23245 14.535ZM5.23245 0.780647L5.11826 0.29386L5.23245 0.780647ZM10.0832 0.780647L10.1973 0.293859L10.0832 0.780647ZM16.1464 16.8536C16.3417 17.0488 16.6583 17.0488 16.8536 16.8536C17.0488 16.6583 17.0488 16.3417 16.8536 16.1464L16.5 16.5L16.1464 16.8536ZM0.780647 10.0832L1.26743 9.96897C0.910855 8.44882 0.910855 6.86678 1.26743 5.34663L0.780647 5.23244L0.29386 5.11826C-0.0979534 6.78862 -0.0979534 8.52699 0.29386 10.1973L0.780647 10.0832ZM14.535 5.23245L14.0482 5.34663C14.4047 6.86678 14.4047 8.44882 14.0482 9.96897L14.535 10.0832L15.0217 10.1973C15.4136 8.52698 15.4136 6.78862 15.0217 5.11826L14.535 5.23245ZM10.0832 14.535L9.96897 14.0482C8.44882 14.4047 6.86678 14.4047 5.34663 14.0482L5.23245 14.535L5.11826 15.0217C6.78862 15.4136 8.52698 15.4136 10.1973 15.0217L10.0832 14.535ZM5.23245 0.780647L5.34663 1.26743C6.86678 0.910856 8.44882 0.910855 9.96897 1.26743L10.0832 0.780647L10.1973 0.293859C8.52698 -0.0979533 6.78862 -0.097953 5.11826 0.29386L5.23245 0.780647ZM5.23245 14.535L5.34663 14.0482C3.3226 13.5734 1.74221 11.993 1.26743 9.96897L0.780647 10.0832L0.29386 10.1973C0.855369 12.5911 2.72447 14.4602 5.11826 15.0217L5.23245 14.535ZM10.0832 14.535L10.1973 15.0217C12.5911 14.4602 14.4602 12.5911 15.0217 10.1973L14.535 10.0832L14.0482 9.96897C13.5734 11.993 11.993 13.5734 9.96897 14.0482L10.0832 14.535ZM10.0832 0.780647L9.96897 1.26743C11.993 1.74221 13.5734 3.32259 14.0482 5.34663L14.535 5.23245L15.0217 5.11826C14.4602 2.72447 12.5911 0.855368 10.1973 0.293859L10.0832 0.780647ZM5.23245 0.780647L5.11826 0.29386C2.72447 0.855368 0.855369 2.72446 0.29386 5.11826L0.780647 5.23244L1.26743 5.34663C1.74221 3.32259 3.32259 1.74221 5.34663 1.26743L5.23245 0.780647ZM13.2423 13.2423L12.8888 13.5959L16.1464 16.8536L16.5 16.5L16.8536 16.1464L13.5959 12.8888L13.2423 13.2423Z" fill="#979797"/>
</svg>
